<?xml version="1.0" encoding="UTF-8"?>
<svg id="Layer_1" data-name="Layer 1" xmlns="http://www.w3.org/2000/svg" viewBox="0 0 50 25">
  <defs>
    <style>
      .battery-wrapper {
        fill: #909090;
      }
    </style>
  </defs>
  <path class="battery-wrapper" d="M38,2c3.31,0,6,2.69,6,6v9c0,3.31-2.69,6-6,6H8c-3.31,0-6-2.69-6-6V8c0-3.31,2.69-6,6-6h30m0-2H8C3.58,0,0,3.58,0,8v9c0,4.42,3.58,8,8,8h30c4.42,0,8-3.58,8-8V8c0-4.42-3.58-8-8-8h0Z"/>
  <rect x="4" y="4" width="38" height="17" rx="3" ry="3"/>
  <path d="M47.5,8.5v8c1.38,0,2.5-1.79,2.5-4s-1.12-4-2.5-4Z"/>
</svg>