<?xml version="1.0" encoding="UTF-8"?>
<svg id="Layer_1" data-name="Layer 1" xmlns="http://www.w3.org/2000/svg" viewBox="0 0 60 57.47">
  <path d="M30,6.09l5.29,10.73c1.33,2.69,3.9,4.56,6.87,4.99l11.84,1.72-8.57,8.35c-2.15,2.1-3.13,5.12-2.62,8.08l2.02,11.79-10.59-5.57c-1.3-.69-2.77-1.05-4.25-1.05s-2.94,.36-4.25,1.05l-10.59,5.57,2.02-11.79c.51-2.96-.47-5.98-2.62-8.08L5.99,23.53l11.84-1.72c2.97-.43,5.54-2.3,6.87-4.99l5.29-10.73m0-6.09c-1.47,0-2.95,.77-3.7,2.3l-6.07,12.3c-.6,1.22-1.76,2.06-3.11,2.26l-13.57,1.97c-3.39,.49-4.74,4.66-2.29,7.05l9.82,9.57c.97,.95,1.42,2.32,1.19,3.66l-2.32,13.52c-.46,2.67,1.66,4.84,4.07,4.84,.64,0,1.29-.15,1.92-.48l12.14-6.38c.6-.32,1.26-.47,1.92-.47s1.32,.16,1.92,.47l12.14,6.38c.63,.33,1.29,.48,1.92,.48,2.41,0,4.53-2.17,4.07-4.84l-2.32-13.52c-.23-1.34,.21-2.71,1.19-3.66l9.82-9.57c2.45-2.39,1.1-6.55-2.29-7.05l-13.57-1.97c-1.35-.2-2.51-1.04-3.11-2.26l-6.07-12.3c-.76-1.54-2.23-2.3-3.7-2.3h0Z"/>
</svg>