<?xml version="1.0" encoding="UTF-8"?>
<svg id="Layer_1" xmlns="http://www.w3.org/2000/svg" viewBox="0 0 60 57.47">
<defs>
<style>.fullstar-1{fill:#ffc000;}</style>
</defs>
<path class="fullstar-1" d="M33.7,2.3l6.07,12.3c.6,1.22,1.76,2.06,3.11,2.26l13.57,1.97c3.39,.49,4.74,4.66,2.29,7.05l-9.82,9.57c-.97,.95-1.42,2.32-1.19,3.66l2.32,13.52c.58,3.37-2.96,5.95-5.99,4.35l-12.14-6.38c-1.2-.63-2.64-.63-3.84,0l-12.14,6.38c-3.03,1.59-6.57-.98-5.99-4.35l2.32-13.52c.23-1.34-.21-2.71-1.19-3.66L1.25,25.88c-2.45-2.39-1.1-6.55,2.29-7.05l13.57-1.97c1.35-.2,2.51-1.04,3.11-2.26L26.3,2.3c1.52-3.07,5.89-3.07,7.41,0Z"/>
</svg>