<?xml version="1.0" encoding="utf-8"?>
<!-- Generator: Adobe Illustrator 27.0.1, SVG Export Plug-In . SVG Version: 6.00 Build 0)  -->
<svg version="1.1" id="Layer_1" xmlns="http://www.w3.org/2000/svg" xmlns:xlink="http://www.w3.org/1999/xlink" x="0px" y="0px"
	 viewBox="0 0 60 60" style="enable-background:new 0 0 60 60;" xml:space="preserve">
<style type="text/css">
	.submit0{fill:#4488FF;}
	.submit1{display:none;fill:#FFFFFF;stroke:#FFFFFF;stroke-width:2;stroke-linecap:round;stroke-linejoin:round;stroke-miterlimit:10;}
	.submit2{display:none;fill:#FFFFFF;}
	.submit3{fill:#FFFFFF;}
</style>
<g>
	<circle class="submit0" cx="30" cy="30" r="30"/>
</g>
<polygon class="submit1" points="10,15 50,30 10,45 20,30 "/>
<path class="submit2" d="M12.58,15.74l35.54,13.33c0.87,0.32,0.87,1.55,0,1.87L12.58,44.26c-0.79,0.3-1.57-0.45-1.3-1.25l4.23-12.7
	c0.07-0.21,0.07-0.43,0-0.63l-4.23-12.7C11.02,16.19,11.79,15.44,12.58,15.74z"/>
<path class="submit3" d="M14.79,13.75l32.06,14.43c1.57,0.71,1.57,2.94,0,3.65L14.79,46.25c-1.55,0.7-3.2-0.73-2.75-2.36l3.71-13.36
	c0.1-0.35,0.1-0.72,0-1.07l-3.71-13.36C11.59,14.48,13.25,13.05,14.79,13.75z"/>
</svg>
