<?xml version="1.0" encoding="UTF-8"?>
<svg id="Layer_1" data-name="Layer 1" xmlns="http://www.w3.org/2000/svg" viewBox="0 0 52 60">
  <defs>
    <style>
      .trash-1 {
        fill: none;
        stroke: #ff4444;
        stroke-linecap: round;
        stroke-miterlimit: 10;
        stroke-width: 3px;
      }
    </style>
  </defs>
  <path d="M42.48,23c.09,.06,.29,.34,.27,.85l-1.52,31.74c-.01,.26-.22,.41-.28,.41H11.1c-.06,0-.27-.15-.28-.42l-1.57-31.74c-.03-.52,.2-.81,.25-.84H42.48m0-4H9.51c-2.48,0-4.39,2.27-4.25,5.04l1.57,31.74c.12,2.34,2.03,4.22,4.28,4.22h29.85c2.25,0,4.16-1.88,4.27-4.22l1.52-31.74c.13-2.77-1.77-5.04-4.26-5.04h0Z"/>
  <line class="trash-1" x1="17.21" y1="27.42" x2="17.72" y2="50.95"/>
  <line class="trash-1" x1="34.81" y1="27.42" x2="34.33" y2="50.95"/>
  <line class="trash-1" x1="26.01" y1="27.42" x2="26.02" y2="50.95"/>
  <path d="M47.5,12c.28,0,.5,.22,.5,.5v6.5H4v-6.5c0-.28,.22-.5,.5-.5H47.5m0-4H4.5c-2.49,0-4.5,2.01-4.5,4.5v9c0,.83,.67,1.5,1.5,1.5H50.5c.83,0,1.5-.67,1.5-1.5V12.5c0-2.49-2.01-4.5-4.5-4.5h0Z"/>
  <path d="M33.5,4c.28,0,.5,.22,.5,.5v3c0,.28-.22,.5-.5,.5h-15c-.28,0-.5-.22-.5-.5v-3c0-.28,.22-.5,.5-.5h15m0-4h-15c-2.49,0-4.5,2.01-4.5,4.5v3c0,2.49,2.01,4.5,4.5,4.5h15c2.49,0,4.5-2.01,4.5-4.5v-3c0-2.49-2.01-4.5-4.5-4.5h0Z"/>
</svg>