<?xml version="1.0" encoding="UTF-8"?>
<svg id="Layer_1" data-name="Layer 1" xmlns="http://www.w3.org/2000/svg" viewBox="0 0 60 60">
  <circle cx="30" cy="30" r="14"/>
  <rect x="27" width="6" height="11" rx="3" ry="3"/>
  <rect x="9.68" y="7.18" width="6" height="11" rx="3" ry="3" transform="translate(-5.25 12.68) rotate(-45)"/>
  <rect x="2.5" y="24.5" width="6" height="11" rx="3" ry="3" transform="translate(-24.5 35.5) rotate(-90)"/>
  <rect x="9.68" y="41.82" width="6" height="11" rx="3" ry="3" transform="translate(-11.82 89.75) rotate(-135)"/>
  <rect x="27" y="49" width="6" height="11" rx="3" ry="3" transform="translate(60 109) rotate(-180)"/>
  <rect x="44.32" y="41.82" width="6" height="11" rx="3" ry="3" transform="translate(114.25 47.32) rotate(135)"/>
  <rect x="51.5" y="24.5" width="6" height="11" rx="3" ry="3" transform="translate(84.5 -24.5) rotate(90)"/>
  <rect x="44.32" y="7.18" width="6" height="11" rx="3" ry="3" transform="translate(22.82 -29.75) rotate(45)"/>
</svg>