<?xml version="1.0" encoding="UTF-8"?>
<svg id="Layer_1" data-name="Layer 1" xmlns="http://www.w3.org/2000/svg" viewBox="0 0 60 60">
  <defs>
    <style>
      .picker-1 {
        fill: #ea907a;
      }

      .picker-2 {
        fill: #61c0bf;
      }

      .picker-3 {
        fill: #cce595;
      }

      .picker-4 {
        fill: #f4f4c4;
      }

      .picker-5 {
        fill: #5a84af;
      }

      .picker-6 {
        fill: #ffcece;
      }

      .picker-7 {
        fill: #cca8e9;
      }

      .picker-8 {
        fill: #f8c888;
      }
    </style>
  </defs>
  <path class="picker-8" d="M30,15V0C21.72,0,14.22,3.36,8.79,8.79l10.61,10.61c2.71-2.71,6.46-4.39,10.61-4.39Z"/>
  <path class="picker-3" d="M45,30h15c0-8.28-3.36-15.78-8.79-21.21l-10.61,10.61c2.71,2.71,4.39,6.46,4.39,10.61Z"/>
  <path class="picker-4" d="M40.61,19.39l10.61-10.61C45.78,3.36,38.28,0,30,0V15c4.14,0,7.89,1.68,10.61,4.39Z"/>
  <path class="picker-1" d="M19.39,19.39L8.79,8.79C3.36,14.22,0,21.72,0,30H15c0-4.14,1.68-7.89,4.39-10.61Z"/>
  <path class="picker-6" d="M15,30H0c0,8.28,3.36,15.78,8.79,21.21l10.61-10.61c-2.71-2.71-4.39-6.46-4.39-10.61Z"/>
  <path class="picker-2" d="M45,30c0,4.14-1.68,7.89-4.39,10.61l10.61,10.61c5.43-5.43,8.79-12.93,8.79-21.21h-15Z"/>
  <path class="picker-5" d="M30,45v15c8.28,0,15.78-3.36,21.21-8.79l-10.61-10.61c-2.71,2.71-6.46,4.39-10.61,4.39Z"/>
  <path class="picker-7" d="M19.39,40.61l-10.61,10.61c5.43,5.43,12.93,8.79,21.21,8.79v-15c-4.14,0-7.89-1.68-10.61-4.39Z"/>
</svg>